<?xml version="1.0" encoding="utf-8"?>
<!-- Generator: Adobe Illustrator 19.2.1, SVG Export Plug-In . SVG Version: 6.00 Build 0)  -->
<svg version="1.1" id="Layer_1" xmlns="http://www.w3.org/2000/svg" xmlns:xlink="http://www.w3.org/1999/xlink" x="0px" y="0px"
	 viewBox="0 0 1024 1024" style="enable-background:new 0 0 1024 1024;" xml:space="preserve">
<style type="text/css">
	.st0{fill:#5F5759;}
	.st1{fill:#C1203B;stroke:#FFFFFF;stroke-width:70;stroke-miterlimit:10;}
	.st2{fill:none;stroke:#FFFFFF;stroke-width:70;stroke-miterlimit:10;}
	.st3{fill:#FFFFFF;stroke:#5F5759;stroke-width:70;stroke-miterlimit:10;}
	.st4{fill:none;stroke:#5F5759;stroke-width:70;stroke-miterlimit:10;}
	.st5{fill:none;stroke:#5F5759;stroke-width:70;stroke-linecap:round;stroke-linejoin:round;stroke-miterlimit:10;}
	.st6{fill:url(#SVGID_1_);stroke:#FFFFFF;stroke-width:70;stroke-miterlimit:10;}
	.st7{fill:url(#SVGID_2_);}
	.st8{fill:url(#SVGID_3_);stroke:#FFFFFF;stroke-width:70;stroke-miterlimit:10;}
	.st9{fill:url(#SVGID_4_);}
	.st10{fill:url(#SVGID_5_);stroke:#FFFFFF;stroke-width:70;stroke-miterlimit:10;}
	.st11{fill:url(#SVGID_6_);}
</style>
<g>
	<g>
		<g>
			<path class="st0" d="M927.5,767.8c3.2,0,3.2-5,0-5C924.3,762.8,924.3,767.8,927.5,767.8L927.5,767.8z"/>
		</g>
	</g>
	<linearGradient id="SVGID_1_" gradientUnits="userSpaceOnUse" x1="349.972" y1="238.6853" x2="896.6014" y2="785.3147">
		<stop  offset="0" style="stop-color:#D6363F"/>
		<stop  offset="1" style="stop-color:#C2203B"/>
	</linearGradient>
	<path class="st6" d="M529.5,59.2c250.1,0,452.8,202.7,452.8,452.8S779.6,964.8,529.5,964.8"/>
	<line class="st1" x1="982.3" y1="512" x2="529.5" y2="512"/>
	<line class="st1" x1="529.5" y1="964.5" x2="529.5" y2="59.5"/>
	<g>
		<path class="st2" d="M673.4,87.6c77.6,84.2,130.1,245.8,130.1,431.4c0,175.8-47.1,330.1-118.1,417.4"/>
		<path class="st2" d="M385.6,87.6C307.9,171.8,255.4,333.4,255.4,519c0,175.8,47.1,330.1,118.1,417.4"/>
	</g>
	<g>
		<path class="st2" d="M953.9,701.2c-84.2,24.9-245.8,41.8-431.4,41.8"/>
		<path class="st2" d="M953.9,322.8c-84.2-24.9-245.8-41.8-431.4-41.8"/>
	</g>
	<linearGradient id="SVGID_2_" gradientUnits="userSpaceOnUse" x1="134.4297" y1="805.1725" x2="736.8162" y2="223.4546">
		<stop  offset="0" style="stop-color:#333334"/>
		<stop  offset="1" style="stop-color:#58595B"/>
	</linearGradient>
	<path class="st7" d="M529.5,24.2c-65.8,0-129.7,12.9-189.9,38.4C281.5,87.1,229.3,122.3,184.5,167c-35,35-64,74.4-86.8,117.7
		c-0.5,0.1-1,0.2-1.5,0.4l0.4,1.6c-6,11.5-11.6,23.3-16.7,35.4C54.6,382.3,41.7,446.2,41.7,512S54.6,641.7,80,701.9
		c5.1,12.1,10.7,23.9,16.7,35.4l-0.4,1.6c0.5,0.1,1,0.3,1.5,0.4c22.8,43.3,51.9,82.7,86.8,117.7c44.8,44.8,97,80,155.1,104.5
		c60.2,25.4,124.1,38.4,189.9,38.4c19.3,0,35-15.7,35-35V59.2C564.5,39.8,548.8,24.2,529.5,24.2z M308.7,699.8
		c-10.2-48.4-16.3-100.1-17.9-152.8h203.6v160.8C429.4,707.2,366.2,704.4,308.7,699.8z M144.5,674.6
		c-17.2-40.8-27.8-83.6-31.4-127.6h107.7c1.4,50.3,6.6,99.2,15.1,145.5c-33.3-4-63.6-8.7-89.7-14C145.6,677.3,145,676,144.5,674.6z
		 M146.2,345.4c26.9-5.4,58.1-10.2,92.5-14.3c-9.4,46.6-15.3,95.8-17.4,145.9H113.1c3.6-44.1,14.1-86.9,31.4-127.6
		C145,348,145.6,346.7,146.2,345.4z M291.4,477c2.4-53.1,9.3-104.8,20.5-153c56.7-4.5,118.7-7.2,182.7-7.8V477H291.4z M494.5,246.2
		c-56.4,0.5-111,2.6-162,6c20.6-58.7,47.6-107.1,78.8-140.9l-0.2-0.2c27.1-8,55-13.2,83.4-15.6V246.2z M234,216.5
		c17.7-17.7,36.9-33.7,57.2-47.8c-12.6,26.5-23.8,55.4-33.3,86.3c-0.4,1.2-0.7,2.4-1.1,3.7c-23.1,2.4-45,5.1-65.6,8.1
		C204.1,249,218.4,232.2,234,216.5z M191.2,757.3c19.4,2.8,39.9,5.4,61.4,7.6c8.3,29.5,18.1,57.5,29.2,83.7
		C265,836.2,249,822.5,234,807.5C218.4,791.8,204.1,775,191.2,757.3z M395.6,907.9c-27-35.2-50.2-82-67.9-136.5
		c52.3,3.6,108.6,5.8,166.8,6.4v150.6C460.7,925.6,427.6,918.8,395.6,907.9z"/>
</g>
</svg>
